<svg width="115" height="48" viewBox="0 0 115 48" fill="none" xmlns="http://www.w3.org/2000/svg">
<g filter="url(#filter0_d_9_149)">
<rect x="4" width="107" height="40" rx="5" fill="#00101C" shape-rendering="crispEdges"/>
<path d="M37.744 14.912C37.9787 15.3173 38.24 15.8133 38.528 16.4C38.816 16.9867 39.1093 17.6053 39.408 18.256C39.7067 18.896 40 19.552 40.288 20.224C40.5867 20.8853 40.8587 21.4987 41.104 22.064C41.3493 21.4987 41.616 20.8853 41.904 20.224C42.192 19.552 42.4853 18.896 42.784 18.256C43.0827 17.6053 43.376 16.9867 43.664 16.4C43.952 15.8133 44.2133 15.3173 44.448 14.912H46.272C46.368 15.7227 46.4587 16.5867 46.544 17.504C46.6293 18.4107 46.704 19.344 46.768 20.304C46.8427 21.2533 46.9067 22.2133 46.96 23.184C47.024 24.144 47.0773 25.0827 47.12 26H45.136C45.0933 24.7093 45.04 23.3813 44.976 22.016C44.9227 20.6507 44.8373 19.328 44.72 18.048C44.6027 18.2933 44.464 18.5867 44.304 18.928C44.144 19.2693 43.9733 19.6427 43.792 20.048C43.6107 20.4427 43.424 20.8533 43.232 21.28C43.0507 21.7067 42.8693 22.1227 42.688 22.528C42.5173 22.9227 42.3573 23.296 42.208 23.648C42.0587 23.9893 41.9307 24.2827 41.824 24.528H40.32C40.2133 24.2827 40.0853 23.984 39.936 23.632C39.7867 23.28 39.6213 22.9067 39.44 22.512C39.2693 22.1067 39.088 21.6907 38.896 21.264C38.7147 20.8373 38.5333 20.4267 38.352 20.032C38.1707 19.6373 38 19.2693 37.84 18.928C37.68 18.576 37.5413 18.2827 37.424 18.048C37.3067 19.328 37.216 20.6507 37.152 22.016C37.0987 23.3813 37.0507 24.7093 37.008 26H35.024C35.0667 25.0827 35.1147 24.1333 35.168 23.152C35.232 22.1707 35.296 21.2 35.36 20.24C35.4347 19.2693 35.5147 18.3307 35.6 17.424C35.6853 16.5173 35.776 15.68 35.872 14.912H37.744ZM49.4686 26V14.912H56.5886V16.624H51.4846V19.36H56.0286V21.04H51.4846V24.288H56.9726V26H49.4686ZM66.3156 26C65.953 25.392 65.5476 24.7413 65.0996 24.048C64.6516 23.344 64.1876 22.64 63.7076 21.936C63.2276 21.2213 62.737 20.5333 62.2356 19.872C61.745 19.2 61.2756 18.5973 60.8276 18.064V26H58.8436V14.912H60.4916C60.9183 15.36 61.377 15.8933 61.8676 16.512C62.3583 17.12 62.849 17.7547 63.3396 18.416C63.841 19.0773 64.321 19.744 64.7796 20.416C65.249 21.0773 65.665 21.696 66.0276 22.272V14.912H68.0276V26H66.3156ZM74.9594 26.24C74.202 26.24 73.5514 26.1333 73.0074 25.92C72.4634 25.696 72.01 25.3867 71.6474 24.992C71.2954 24.5973 71.034 24.1333 70.8634 23.6C70.6927 23.0667 70.6074 22.48 70.6074 21.84V14.912H72.6394V21.648C72.6394 22.1493 72.6927 22.5813 72.7994 22.944C72.9167 23.296 73.0767 23.584 73.2794 23.808C73.4927 24.032 73.738 24.1973 74.0154 24.304C74.3034 24.4107 74.6234 24.464 74.9754 24.464C75.3274 24.464 75.6474 24.4107 75.9354 24.304C76.2234 24.1973 76.4687 24.032 76.6714 23.808C76.8847 23.584 77.0447 23.296 77.1514 22.944C77.2687 22.5813 77.3274 22.1493 77.3274 21.648V14.912H79.3594V21.84C79.3594 22.48 79.2687 23.0667 79.0874 23.6C78.9167 24.1333 78.65 24.5973 78.2874 24.992C77.9354 25.3867 77.482 25.696 76.9274 25.92C76.3727 26.1333 75.7167 26.24 74.9594 26.24Z" fill="#FBFCFD"/>
</g>
<defs>
<filter id="filter0_d_9_149" x="0" y="0" width="115" height="48" filterUnits="userSpaceOnUse" color-interpolation-filters="sRGB">
<feFlood flood-opacity="0" result="BackgroundImageFix"/>
<feColorMatrix in="SourceAlpha" type="matrix" values="0 0 0 0 0 0 0 0 0 0 0 0 0 0 0 0 0 0 127 0" result="hardAlpha"/>
<feOffset dy="4"/>
<feGaussianBlur stdDeviation="2"/>
<feComposite in2="hardAlpha" operator="out"/>
<feColorMatrix type="matrix" values="0 0 0 0 0 0 0 0 0 0 0 0 0 0 0 0 0 0 0.25 0"/>
<feBlend mode="normal" in2="BackgroundImageFix" result="effect1_dropShadow_9_149"/>
<feBlend mode="normal" in="SourceGraphic" in2="effect1_dropShadow_9_149" result="shape"/>
</filter>
</defs>
</svg>
