<svg width="36" height="36" viewBox="0 0 36 36" fill="none" xmlns="http://www.w3.org/2000/svg">
<g clip-path="url(#clip0_43_408)">
<path d="M18 36C27.9411 36 36 27.9411 36 18C36 8.05887 27.9411 0 18 0C8.05887 0 0 8.05887 0 18C0 27.9411 8.05887 36 18 36Z" fill="#697F9B"/>
<path d="M18 32.4C25.9529 32.4 32.4 25.9529 32.4 18C32.4 10.0471 25.9529 3.59998 18 3.59998C10.0471 3.59998 3.60001 10.0471 3.60001 18C3.60001 25.9529 10.0471 32.4 18 32.4Z" fill="#AAD8B0"/>
<path d="M26.9944 18V20.2568H15.7556L25.6703 30.1714C28.4321 28.4276 30.5561 25.7771 31.6249 22.6305L26.9944 18Z" fill="#A5D2AB"/>
<path d="M27 18.0056H15.75V20.2556H27V18.0056Z" fill="#697F9B"/>
<path d="M18 7.875H15.75V20.25H18V7.875Z" fill="#697F9B"/>
</g>
<defs>
<clipPath id="clip0_43_408">
<rect width="36" height="36" fill="white"/>
</clipPath>
</defs>
</svg>
