<svg width="36" height="36" viewBox="0 0 36 36" fill="none" xmlns="http://www.w3.org/2000/svg">
<g clip-path="url(#clip0_43_430)">
<path d="M25.7379 10.2656C25.153 9.68047 24.8105 8.89609 24.7789 8.06933C24.7474 7.24257 25.0291 6.43438 25.5677 5.80638C25.6123 5.75415 25.6354 5.68701 25.6326 5.61842C25.6297 5.54983 25.601 5.48486 25.5523 5.43653L22.4494 2.33013C22.3981 2.27886 22.3285 2.25006 22.256 2.25006C22.1835 2.25006 22.1139 2.27886 22.0627 2.33013L17.1169 7.27591C16.9344 7.45834 16.7969 7.68078 16.7154 7.9256C16.6342 8.17097 16.4969 8.39404 16.3144 8.57712C16.1319 8.76019 15.9093 8.89823 15.6642 8.98028C15.4192 9.06191 15.1966 9.19936 15.0138 9.38177L2.33016 22.0626C2.27889 22.1139 2.25009 22.1835 2.25009 22.256C2.25009 22.3285 2.27889 22.3981 2.33016 22.4493L5.43305 25.5522C5.48137 25.601 5.54635 25.6297 5.61493 25.6325C5.68352 25.6354 5.75066 25.6123 5.80289 25.5677C6.43076 25.0285 7.23913 24.7463 8.06618 24.7777C8.89322 24.809 9.6779 25.1516 10.2631 25.7368C10.8484 26.3221 11.1909 27.1068 11.2223 27.9338C11.2537 28.7608 10.9715 29.5692 10.4323 30.1971C10.3877 30.2493 10.3646 30.3164 10.3674 30.385C10.3703 30.4536 10.399 30.5186 10.4477 30.5669L13.5506 33.6698C13.6019 33.7211 13.6715 33.7499 13.744 33.7499C13.8165 33.7499 13.8861 33.7211 13.9373 33.6698L26.6217 20.9861C26.8041 20.8034 26.9416 20.5807 27.0232 20.3358C27.1044 20.0904 27.2417 19.8673 27.4242 19.6842C27.6067 19.5012 27.8293 19.3631 28.0744 19.2811C28.3192 19.1995 28.5416 19.0621 28.7241 18.8796L33.6698 13.9338C33.7211 13.8825 33.7499 13.813 33.7499 13.7404C33.7499 13.6679 33.7211 13.5984 33.6698 13.5471L30.567 10.4442C30.5186 10.3954 30.4537 10.3667 30.3851 10.3639C30.3165 10.361 30.2493 10.3842 30.1971 10.4287C29.57 10.9683 28.7623 11.2512 27.9355 11.221C27.1088 11.1907 26.3239 10.8495 25.7379 10.2656Z" fill="#45D2FF" stroke="#2C6AC6" stroke-width="3" stroke-miterlimit="10"/>
<path d="M17.6133 9.87467L16.4524 8.71381" stroke="#3D7FE1" stroke-width="2" stroke-miterlimit="10" stroke-linecap="round"/>
<path d="M20.7084 12.9698L19.9343 12.1964" stroke="#3D7FE1" stroke-width="2" stroke-miterlimit="10" stroke-linecap="round"/>
<path d="M23.8036 16.0657L23.0302 15.2916" stroke="#3D7FE1" stroke-width="2" stroke-miterlimit="10" stroke-linecap="round"/>
<path d="M27.2862 19.5476L26.1253 18.3867" stroke="#3D7FE1" stroke-width="2" stroke-miterlimit="10" stroke-linecap="round"/>
</g>
<defs>
<clipPath id="clip0_43_430">
<rect width="36" height="36" fill="white"/>
</clipPath>
</defs>
</svg>
