<?xml version="1.0" ?><svg height="400px" version="1.1" viewBox="0 0 400 400" width="400px" xmlns="http://www.w3.org/2000/svg" xmlns:xlink="http://www.w3.org/1999/xlink"><title/><desc/><defs><path d="M322.676209,236.643112 L339.85142,236.721307 C339.41956,141.86524 262.173432,64.6191122 167.317365,64.1872525 L167.39556,81.3624628 C252.766021,81.7511366 322.287535,151.272651 322.676209,236.643112 L322.676209,236.643112 L322.676209,236.643112 Z" id="path-1"/><filter filterUnits="objectBoundingBox" height="200%" id="filter-2" width="200%" x="-50%" y="-50%"><feOffset dx="0" dy="3" in="SourceAlpha" result="shadowOffsetOuter1"/><feGaussianBlur in="shadowOffsetOuter1" result="shadowBlurOuter1" stdDeviation="1.5"/><feColorMatrix in="shadowBlurOuter1" type="matrix" values="0 0 0 0 0   0 0 0 0 0   0 0 0 0 0  0 0 0 0.5 0"/></filter><path d="M289.956411,236.609724 L303.762337,236.606522 C303.78002,160.358498 241.983118,98.5615962 165.735094,98.5792784 L165.731892,112.385204 C234.355114,112.36929 289.972325,167.986502 289.956411,236.609724 L289.956411,236.609724 L289.956411,236.609724 Z" id="path-3"/><filter filterUnits="objectBoundingBox" height="200%" id="filter-4" width="200%" x="-50%" y="-50%"><feOffset dx="0" dy="3" in="SourceAlpha" result="shadowOffsetOuter1"/><feGaussianBlur in="shadowOffsetOuter1" result="shadowBlurOuter1" stdDeviation="1.5"/><feColorMatrix in="shadowBlurOuter1" type="matrix" values="0 0 0 0 0   0 0 0 0 0   0 0 0 0 0  0 0 0 0.5 0"/></filter><path d="M264.301301,240.259671 L275.239978,240.238722 C275.355672,179.826078 226.475336,130.945742 166.062691,131.061435 L166.041743,142.000112 C220.413123,141.895988 264.405426,185.888291 264.301301,240.259671 L264.301301,240.259671 L264.301301,240.259671 Z" id="path-5"/><filter filterUnits="objectBoundingBox" height="200%" id="filter-6" width="200%" x="-50%" y="-50%"><feOffset dx="0" dy="3" in="SourceAlpha" result="shadowOffsetOuter1"/><feGaussianBlur in="shadowOffsetOuter1" result="shadowBlurOuter1" stdDeviation="1.5"/><feColorMatrix in="shadowBlurOuter1" type="matrix" values="0 0 0 0 0   0 0 0 0 0   0 0 0 0 0  0 0 0 0.5 0"/></filter><path d="M193.528025,305.262956 C174.753314,289.489475 154.45598,271.835705 141.208153,258.587878 C127.960326,245.340052 110.306557,225.042717 94.5330754,206.268007 L102.668905,198.132176 L111.29484,189.506241 C113.637227,187.163855 113.633004,183.369063 111.289844,181.025903 L77.348773,147.084831 C75.0115014,144.747559 71.2088353,144.739433 68.8684341,147.079834 L56.4030367,159.545231 C56.3871065,159.561162 56.3712849,159.577159 56.3555718,159.593223 C56.355405,159.593012 56.3553391,159.592929 56.3553391,159.592929 C36.8291245,179.119144 62.1557236,236.103992 112.923882,286.87215 C163.692039,337.640308 220.676888,362.966907 240.203102,343.440692 C240.203102,343.440692 240.203019,343.440626 240.202853,343.440494 C240.218872,343.424746 240.23487,343.408925 240.2508,343.392995 L252.716197,330.927597 C255.056598,328.587196 255.048472,324.78453 252.711201,322.447258 L218.770129,288.506187 C216.426968,286.163027 212.632176,286.158804 210.28979,288.501191 L201.663855,297.127126 L193.528025,305.262956 L193.528025,305.262956 Z" id="path-7"/><filter filterUnits="objectBoundingBox" height="200%" id="filter-8" width="200%" x="-50%" y="-50%"><feOffset dx="0" dy="2" in="SourceAlpha" result="shadowOffsetOuter1"/><feGaussianBlur in="shadowOffsetOuter1" result="shadowBlurOuter1" stdDeviation="2"/><feColorMatrix in="shadowBlurOuter1" type="matrix" values="0 0 0 0 0   0 0 0 0 0   0 0 0 0 0  0 0 0 0.5 0"/></filter></defs><g fill="none" fill-rule="evenodd" id="Page-1" stroke="none" stroke-width="1"><g id="phone"><path d="M200,400 C310.45695,400 400,310.45695 400,200 C400,89.54305 310.45695,0 200,0 C89.54305,0 0,89.54305 0,200 C0,310.45695 89.54305,400 200,400 Z" fill="#AAD8B0" id="Oval-6"/><g id="Combined-Shape"><use fill="black" fill-opacity="1" filter="url(#filter-2)" xlink:href="#path-1"/><use fill="#67ADD5" fill-rule="evenodd" xlink:href="#path-1"/></g><g id="Combined-Shape"><use fill="black" fill-opacity="1" filter="url(#filter-4)" xlink:href="#path-3"/><use fill="#67ADD5" fill-rule="evenodd" xlink:href="#path-3"/></g><g id="Combined-Shape"><use fill="black" fill-opacity="1" filter="url(#filter-6)" xlink:href="#path-5"/><use fill="#67ADD5" fill-rule="evenodd" xlink:href="#path-5"/></g><path d="M114.338095,186.462987 C121.367532,179.43355 117.568542,164.23759 105.852814,152.521861 C94.137085,140.806133 78.9411255,137.007143 71.9116882,144.03658 C64.882251,151.066017 68.6812409,166.261977 80.3969696,177.977705 C92.1126984,189.693434 107.308658,193.492424 114.338095,186.462987 L114.338095,186.462987 Z" fill="#FBF0B8" id="Oval-60"/><path d="M213.333044,285.457936 C220.362482,278.428499 235.558441,282.227489 247.27417,293.943218 C258.989899,305.658946 262.788889,320.854906 255.759451,327.884343 C248.730014,334.91378 233.534055,331.11479 221.818326,319.399062 C210.102597,307.683333 206.303607,292.487373 213.333044,285.457936 L213.333044,285.457936 Z" fill="#FBF0B8" id="Oval-60"/><g id="Combined-Shape"><use fill="black" fill-opacity="1" filter="url(#filter-8)" xlink:href="#path-7"/><use fill="#697F9B" fill-rule="evenodd" xlink:href="#path-7"/></g></g></g></svg>